<?xml version="1.0" standalone="no"?>
<!DOCTYPE svg PUBLIC "-//W3C//DTD SVG 20010904//EN"
 "http://www.w3.org/TR/2001/REC-SVG-20010904/DTD/svg10.dtd">
<svg version="1.0" xmlns="http://www.w3.org/2000/svg"
 width="512.000000pt" height="512.000000pt" viewBox="0 0 512.000000 512.000000"
 preserveAspectRatio="xMidYMid meet">

<g transform="translate(0.000000,512.000000) scale(0.100000,-0.100000)"
fill="#000000" stroke="none">
<path d="M2825 4790 c-401 -28 -778 -148 -1098 -351 -430 -273 -720 -667 -818
-1112 -30 -136 -37 -389 -14 -531 124 -793 841 -1408 1790 -1536 117 -16 405
-23 513 -13 l93 9 182 -109 c339 -204 647 -339 803 -353 61 -5 74 -3 114 18
59 32 99 89 106 154 6 44 2 61 -29 130 -82 181 -126 380 -112 502 6 54 9 59
58 95 279 203 513 516 621 824 268 774 -120 1610 -940 2021 -391 196 -829 283
-1269 252z m-270 -1444 c93 -43 154 -124 173 -226 26 -143 -44 -276 -177 -339
-76 -35 -182 -36 -258 -2 -145 64 -219 244 -163 394 64 172 258 251 425 173z
m1151 0 c110 -50 178 -158 178 -282 1 -261 -298 -406 -503 -244 -130 103 -157
286 -62 423 40 57 118 110 185 126 58 14 142 4 202 -23z"/>
<path d="M743 3701 c-386 -257 -638 -617 -720 -1028 -26 -133 -24 -395 6 -533
77 -361 300 -697 622 -938 107 -80 106 -77 115 -217 10 -140 -35 -346 -112
-514 -41 -89 -42 -103 -7 -131 22 -17 35 -20 68 -14 168 27 452 162 819 386
l128 79 167 -11 c395 -28 791 44 1143 208 151 70 153 68 -75 68 -278 1 -473
28 -723 100 -788 226 -1370 811 -1500 1509 -29 151 -26 482 4 621 26 122 79
278 133 393 22 46 38 85 36 87 -1 2 -48 -28 -104 -65z"/>
</g>
</svg>
